<svg width="882" height="882" viewBox="0 0 882 882" fill="none" xmlns="http://www.w3.org/2000/svg">
<rect width="882" height="882" rx="180" fill="#1C1C1C"/>
<path d="M503.783 376.051C504.054 377.115 504.885 377.946 505.949 378.217L740.845 438.093C743.857 438.861 743.857 443.139 740.845 443.907L506.212 503.715C505.149 503.986 504.318 504.815 504.046 505.878L443.906 740.892C443.136 743.901 438.863 743.901 438.093 740.893L378.02 506.142C377.748 505.08 376.919 504.251 375.857 503.979L141.107 443.906C138.099 443.136 138.099 438.863 141.107 438.093L376.12 377.952C377.183 377.68 378.013 376.85 378.284 375.787L438.093 141.154C438.861 138.142 443.139 138.142 443.907 141.154L503.783 376.051Z" fill="white"/>
<path d="M531.284 439.468C530.724 440.412 530.724 441.587 531.284 442.532L654.991 650.88C656.578 653.553 653.553 656.578 650.88 654.991L442.766 531.423C441.822 530.863 440.648 530.862 439.705 531.421L231.086 655.024C228.414 656.607 225.393 653.586 226.976 650.914L350.44 442.528C350.998 441.585 350.998 440.413 350.44 439.47L226.976 231.086C225.393 228.414 228.414 225.393 231.086 226.976L439.705 350.577C440.648 351.136 441.822 351.136 442.765 350.576L650.88 227.009C653.553 225.422 656.578 228.447 654.991 231.12L531.284 439.468Z" stroke="white" stroke-width="15"/>
</svg>
